<svg
  width="64"
  height="64"
  viewBox="0 0 64 64"
  fill="none"
  xmlns="http://www.w3.org/2000/svg"
>
  <!-- Left Page -->
  <path
    d="M10 14C10 11.8 11.8 10 14 10H30V52H14C11.8 52 10 50.2 10 48V14Z"
    fill="#4F46E5"
  />

  <!-- Right Page -->
  <path
    d="M54 14C54 11.8 52.2 10 50 10H34V52H50C52.2 52 54 50.2 54 48V14Z"
    fill="#6366F1"
  />

  <!-- Center Line -->
  <line
    x1="32"
    y1="10"
    x2="32"
    y2="52"
    stroke="#E0E7FF"
    stroke-width="2"
  />

  <!-- Page Lines -->
  <line x1="16" y1="22" x2="26" y2="22" stroke="#E0E7FF" stroke-width="2"/>
  <line x1="16" y1="30" x2="26" y2="30" stroke="#E0E7FF" stroke-width="2"/>
  <line x1="16" y1="38" x2="26" y2="38" stroke="#E0E7FF" stroke-width="2"/>

  <line x1="38" y1="22" x2="48" y2="22" stroke="#E0E7FF" stroke-width="2"/>
  <line x1="38" y1="30" x2="48" y2="30" stroke="#E0E7FF" stroke-width="2"/>
  <line x1="38" y1="38" x2="48" y2="38" stroke="#E0E7FF" stroke-width="2"/>
</svg>
